<mxfile host="Electron" modified="2023-09-19T11:27:52.592Z" agent="Mozilla/5.0 (X11; Linux x86_64) AppleWebKit/537.36 (KHTML, like Gecko) draw.io/21.7.5 Chrome/114.0.5735.289 Electron/25.8.1 Safari/537.36" etag="z7YZhU7TZPxYmXRU_jtm" version="21.7.5" type="device">
  <diagram name="Page-1" id="dlh2HGEMS9u2Ikbi2MeV">
    <mxGraphModel dx="1035" dy="721" grid="1" gridSize="10" guides="1" tooltips="1" connect="1" arrows="1" fold="1" page="1" pageScale="1" pageWidth="850" pageHeight="1100" math="0" shadow="0">
      <root>
        <mxCell id="0" />
        <mxCell id="1" parent="0" />
        <mxCell id="jdgYiCKV-6AsK4i46VtF-1" value="" style="rounded=0;whiteSpace=wrap;html=1;fillColor=#dae8fc;strokeColor=#6c8ebf;" vertex="1" parent="1">
          <mxGeometry x="100" y="240" width="310" height="230" as="geometry" />
        </mxCell>
        <mxCell id="jdgYiCKV-6AsK4i46VtF-2" value="" style="rounded=0;whiteSpace=wrap;html=1;fillColor=#fff2cc;strokeColor=#d6b656;" vertex="1" parent="1">
          <mxGeometry x="450" y="290" width="120" height="130" as="geometry" />
        </mxCell>
        <mxCell id="jdgYiCKV-6AsK4i46VtF-3" value="" style="ellipse;whiteSpace=wrap;html=1;aspect=fixed;fillColor=#f5f5f5;fontColor=#333333;strokeColor=#666666;" vertex="1" parent="1">
          <mxGeometry x="550" y="300" width="40" height="40" as="geometry" />
        </mxCell>
        <mxCell id="jdgYiCKV-6AsK4i46VtF-4" value="signal-estimator" style="rounded=0;whiteSpace=wrap;html=1;fillColor=#F7FFF5;strokeColor=#666666;fontColor=#333333;fontStyle=1" vertex="1" parent="1">
          <mxGeometry x="120" y="325" width="120" height="60" as="geometry" />
        </mxCell>
        <mxCell id="jdgYiCKV-6AsK4i46VtF-5" value="output&lt;br&gt;ALSA device" style="rounded=0;whiteSpace=wrap;html=1;fillColor=#f5f5f5;strokeColor=#666666;fontColor=#333333;fontStyle=1" vertex="1" parent="1">
          <mxGeometry x="270" y="260" width="120" height="50" as="geometry" />
        </mxCell>
        <mxCell id="jdgYiCKV-6AsK4i46VtF-6" value="input&lt;br&gt;ALSA device" style="rounded=0;whiteSpace=wrap;html=1;fillColor=#f5f5f5;strokeColor=#666666;fontColor=#333333;fontStyle=1" vertex="1" parent="1">
          <mxGeometry x="270" y="400" width="120" height="50" as="geometry" />
        </mxCell>
        <mxCell id="jdgYiCKV-6AsK4i46VtF-7" value="" style="ellipse;whiteSpace=wrap;html=1;aspect=fixed;fillColor=#f5f5f5;fontColor=#333333;strokeColor=#666666;" vertex="1" parent="1">
          <mxGeometry x="550" y="370" width="40" height="40" as="geometry" />
        </mxCell>
        <mxCell id="jdgYiCKV-6AsK4i46VtF-8" value="" style="endArrow=classic;html=1;rounded=0;" edge="1" parent="1" source="jdgYiCKV-6AsK4i46VtF-4" target="jdgYiCKV-6AsK4i46VtF-5">
          <mxGeometry width="50" height="50" relative="1" as="geometry">
            <mxPoint x="240" y="240" as="sourcePoint" />
            <mxPoint x="290" y="190" as="targetPoint" />
          </mxGeometry>
        </mxCell>
        <mxCell id="jdgYiCKV-6AsK4i46VtF-9" value="" style="endArrow=classic;html=1;rounded=0;fillColor=#e51400;strokeColor=#B20000;strokeWidth=2;" edge="1" parent="1" source="jdgYiCKV-6AsK4i46VtF-5" target="jdgYiCKV-6AsK4i46VtF-3">
          <mxGeometry width="50" height="50" relative="1" as="geometry">
            <mxPoint x="200" y="240" as="sourcePoint" />
            <mxPoint x="250" y="190" as="targetPoint" />
            <Array as="points">
              <mxPoint x="430" y="320" />
            </Array>
          </mxGeometry>
        </mxCell>
        <mxCell id="jdgYiCKV-6AsK4i46VtF-10" value="" style="endArrow=classic;html=1;rounded=0;fillColor=#e51400;strokeColor=#B20000;strokeWidth=2;" edge="1" parent="1" source="jdgYiCKV-6AsK4i46VtF-7" target="jdgYiCKV-6AsK4i46VtF-6">
          <mxGeometry width="50" height="50" relative="1" as="geometry">
            <mxPoint x="200" y="240" as="sourcePoint" />
            <mxPoint x="250" y="190" as="targetPoint" />
            <Array as="points">
              <mxPoint x="430" y="390" />
            </Array>
          </mxGeometry>
        </mxCell>
        <mxCell id="jdgYiCKV-6AsK4i46VtF-11" value="" style="endArrow=classic;html=1;rounded=0;" edge="1" parent="1" source="jdgYiCKV-6AsK4i46VtF-6" target="jdgYiCKV-6AsK4i46VtF-4">
          <mxGeometry width="50" height="50" relative="1" as="geometry">
            <mxPoint x="240" y="240" as="sourcePoint" />
            <mxPoint x="290" y="190" as="targetPoint" />
          </mxGeometry>
        </mxCell>
        <mxCell id="jdgYiCKV-6AsK4i46VtF-12" value="PC" style="text;html=1;strokeColor=none;fillColor=none;align=center;verticalAlign=middle;whiteSpace=wrap;rounded=0;fontStyle=1;fontSize=16;" vertex="1" parent="1">
          <mxGeometry x="110" y="250" width="60" height="30" as="geometry" />
        </mxCell>
        <mxCell id="jdgYiCKV-6AsK4i46VtF-13" value="sound&lt;br style=&quot;font-size: 16px;&quot;&gt;card" style="text;html=1;strokeColor=none;fillColor=none;align=center;verticalAlign=middle;whiteSpace=wrap;rounded=0;fontStyle=1;fontSize=16;" vertex="1" parent="1">
          <mxGeometry x="480" y="340" width="60" height="30" as="geometry" />
        </mxCell>
        <mxCell id="jdgYiCKV-6AsK4i46VtF-15" value="" style="shape=image;verticalLabelPosition=bottom;labelBackgroundColor=default;verticalAlign=top;aspect=fixed;imageAspect=0;image=data:image/svg+xml,PHN2ZyB4bWxucz0iaHR0cDovL3d3dy53My5vcmcvMjAwMC9zdmciIHdpZHRoPSIyNCIgdmlld0JveD0iMCAtOTYwIDk2MCA5NjAiIGhlaWdodD0iMjQiPjxwYXRoIGQ9Ik0zNjAtMTIwSDIwMHEtMzMgMC01Ni41LTIzLjVUMTIwLTIwMHYtMjgwcTAtNzUgMjguNS0xNDAuNXQ3Ny0xMTRxNDguNS00OC41IDExNC03N1Q0ODAtODQwcTc1IDAgMTQwLjUgMjguNXQxMTQgNzdxNDguNSA0OC41IDc3IDExNFQ4NDAtNDgwdjI4MHEwIDMzLTIzLjUgNTYuNVQ3NjAtMTIwSDYwMHYtMzIwaDE2MHYtNDBxMC0xMTctODEuNS0xOTguNVQ0ODAtNzYwcS0xMTcgMC0xOTguNSA4MS41VDIwMC00ODB2NDBoMTYwdjMyMFptLTgwLTI0MGgtODB2MTYwaDgwdi0xNjBabTQwMCAwdjE2MGg4MHYtMTYwaC04MFptLTQwMCAwaC04MCA4MFptNDAwIDBoODAtODBaIi8+PC9zdmc+;" vertex="1" parent="1">
          <mxGeometry x="560" y="310" width="20" height="20" as="geometry" />
        </mxCell>
        <mxCell id="jdgYiCKV-6AsK4i46VtF-16" value="" style="shape=image;verticalLabelPosition=bottom;labelBackgroundColor=default;verticalAlign=top;aspect=fixed;imageAspect=0;image=data:image/svg+xml,PHN2ZyB4bWxucz0iaHR0cDovL3d3dy53My5vcmcvMjAwMC9zdmciIHdpZHRoPSIyNCIgdmlld0JveD0iMCAtOTYwIDk2MCA5NjAiIGhlaWdodD0iMjQiPjxwYXRoIGQ9Ik00ODAtNDAwcS01MCAwLTg1LTM1dC0zNS04NXYtMjQwcTAtNTAgMzUtODV0ODUtMzVxNTAgMCA4NSAzNXQzNSA4NXYyNDBxMCA1MC0zNSA4NXQtODUgMzVabTAtMjQwWm0tNDAgNTIwdi0xMjNxLTEwNC0xNC0xNzItOTN0LTY4LTE4NGg4MHEwIDgzIDU4LjUgMTQxLjVUNDgwLTMyMHE4MyAwIDE0MS41LTU4LjVUNjgwLTUyMGg4MHEwIDEwNS02OCAxODR0LTE3MiA5M3YxMjNoLTgwWm00MC0zNjBxMTcgMCAyOC41LTExLjVUNTIwLTUyMHYtMjQwcTAtMTctMTEuNS0yOC41VDQ4MC04MDBxLTE3IDAtMjguNSAxMS41VDQ0MC03NjB2MjQwcTAgMTcgMTEuNSAyOC41VDQ4MC00ODBaIi8+PC9zdmc+;" vertex="1" parent="1">
          <mxGeometry x="560" y="380" width="20" height="20" as="geometry" />
        </mxCell>
        <mxCell id="jdgYiCKV-6AsK4i46VtF-20" value="" style="shape=image;verticalLabelPosition=bottom;labelBackgroundColor=default;verticalAlign=top;aspect=fixed;imageAspect=0;image=data:image/svg+xml,PHN2ZyB4bWxucz0iaHR0cDovL3d3dy53My5vcmcvMjAwMC9zdmciIHdpZHRoPSIyNCIgdmlld0JveD0iMCAtOTYwIDk2MCA5NjAiIGhlaWdodD0iMjQiPjxwYXRoIGQ9Ik02ODAtODBIMjgwcS0zMyAwLTU2LjUtMjMuNVQyMDAtMTYwdi02NDBxMC0zMyAyMy41LTU2LjVUMjgwLTg4MGg0MDBxMzMgMCA1Ni41IDIzLjVUNzYwLTgwMHY2NDBxMCAzMy0yMy41IDU2LjVUNjgwLTgwWm0wLTgwdi02NDBIMjgwdjY0MGg0MDBaTTQ4MC02MDBxMzMgMCA1Ni41LTIzLjVUNTYwLTY4MHEwLTMzLTIzLjUtNTYuNVQ0ODAtNzYwcS0zMyAwLTU2LjUgMjMuNVQ0MDAtNjgwcTAgMzMgMjMuNSA1Ni41VDQ4MC02MDBabTAgNDAwcTY2IDAgMTEzLTQ3dDQ3LTExM3EwLTY2LTQ3LTExM3QtMTEzLTQ3cS02NiAwLTExMyA0N3QtNDcgMTEzcTAgNjYgNDcgMTEzdDExMyA0N1ptMC04MHEtMzMgMC01Ni41LTIzLjVUNDAwLTM2MHEwLTMzIDIzLjUtNTYuNVQ0ODAtNDQwcTMzIDAgNTYuNSAyMy41VDU2MC0zNjBxMCAzMy0yMy41IDU2LjVUNDgwLTI4MFpNMjgwLTgwMHY2NDAtNjQwWiIvPjwvc3ZnPg==;" vertex="1" parent="1">
          <mxGeometry x="640" y="280" width="50" height="50" as="geometry" />
        </mxCell>
        <mxCell id="jdgYiCKV-6AsK4i46VtF-22" value="" style="shape=image;verticalLabelPosition=bottom;labelBackgroundColor=default;verticalAlign=top;aspect=fixed;imageAspect=0;image=data:image/svg+xml,PHN2ZyB4bWxucz0iaHR0cDovL3d3dy53My5vcmcvMjAwMC9zdmciIHdpZHRoPSIyNCIgdmlld0JveD0iMCAtOTYwIDk2MCA5NjAiIGhlaWdodD0iMjQiPjxwYXRoIGQ9Ik00ODAtNDAwcS01MCAwLTg1LTM1dC0zNS04NXYtMjQwcTAtNTAgMzUtODV0ODUtMzVxNTAgMCA4NSAzNXQzNSA4NXYyNDBxMCA1MC0zNSA4NXQtODUgMzVabTAtMjQwWm0tNDAgNTIwdi0xMjNxLTEwNC0xNC0xNzItOTN0LTY4LTE4NGg4MHEwIDgzIDU4LjUgMTQxLjVUNDgwLTMyMHE4MyAwIDE0MS41LTU4LjVUNjgwLTUyMGg4MHEwIDEwNS02OCAxODR0LTE3MiA5M3YxMjNoLTgwWm00MC0zNjBxMTcgMCAyOC41LTExLjVUNTIwLTUyMHYtMjQwcTAtMTctMTEuNS0yOC41VDQ4MC04MDBxLTE3IDAtMjguNSAxMS41VDQ0MC03NjB2MjQwcTAgMTcgMTEuNSAyOC41VDQ4MC00ODBaIi8+PC9zdmc+;" vertex="1" parent="1">
          <mxGeometry x="640" y="380" width="50" height="50" as="geometry" />
        </mxCell>
        <mxCell id="jdgYiCKV-6AsK4i46VtF-29" value="" style="endArrow=none;html=1;rounded=0;strokeWidth=2;strokeColor=#B20000;" edge="1" parent="1">
          <mxGeometry width="50" height="50" relative="1" as="geometry">
            <mxPoint x="645" y="365" as="sourcePoint" />
            <mxPoint x="655" y="345" as="targetPoint" />
          </mxGeometry>
        </mxCell>
        <mxCell id="jdgYiCKV-6AsK4i46VtF-30" value="" style="endArrow=none;html=1;rounded=0;strokeWidth=2;strokeColor=#B20000;" edge="1" parent="1">
          <mxGeometry width="50" height="50" relative="1" as="geometry">
            <mxPoint x="665" y="365" as="sourcePoint" />
            <mxPoint x="665" y="345" as="targetPoint" />
          </mxGeometry>
        </mxCell>
        <mxCell id="jdgYiCKV-6AsK4i46VtF-31" value="" style="endArrow=none;html=1;rounded=0;strokeWidth=2;strokeColor=#B20000;" edge="1" parent="1">
          <mxGeometry width="50" height="50" relative="1" as="geometry">
            <mxPoint x="685" y="365" as="sourcePoint" />
            <mxPoint x="675" y="345" as="targetPoint" />
          </mxGeometry>
        </mxCell>
        <mxCell id="jdgYiCKV-6AsK4i46VtF-32" value="" style="endArrow=classic;html=1;rounded=0;fillColor=#e51400;strokeColor=#B20000;strokeWidth=2;" edge="1" parent="1" source="jdgYiCKV-6AsK4i46VtF-3" target="jdgYiCKV-6AsK4i46VtF-20">
          <mxGeometry width="50" height="50" relative="1" as="geometry">
            <mxPoint x="420" y="236" as="sourcePoint" />
            <mxPoint x="580" y="250" as="targetPoint" />
            <Array as="points" />
          </mxGeometry>
        </mxCell>
        <mxCell id="jdgYiCKV-6AsK4i46VtF-33" value="" style="endArrow=classic;html=1;rounded=0;fillColor=#e51400;strokeColor=#B20000;strokeWidth=2;" edge="1" parent="1" source="jdgYiCKV-6AsK4i46VtF-22" target="jdgYiCKV-6AsK4i46VtF-7">
          <mxGeometry width="50" height="50" relative="1" as="geometry">
            <mxPoint x="600" y="329" as="sourcePoint" />
            <mxPoint x="630" y="327" as="targetPoint" />
            <Array as="points" />
          </mxGeometry>
        </mxCell>
      </root>
    </mxGraphModel>
  </diagram>
</mxfile>
